<svg width="224" height="224" viewBox="0 0 224 224" fill="none" xmlns="http://www.w3.org/2000/svg">
<circle cx="112" cy="112" r="112" fill="#D9D9D9"/>
<g clip-path="url(#clip0_144_8)">
<path d="M40 61.6562C40 58.051 41.4322 54.5933 43.9815 52.044C46.5309 49.4947 49.9885 48.0625 53.5938 48.0625H153.281C156.887 48.0625 160.344 49.4947 162.894 52.044C165.443 54.5933 166.875 58.051 166.875 61.6562V157.066C166.875 159.785 166.422 162.993 164.718 165.875H171.406C172.608 165.875 173.761 165.398 174.61 164.548C175.46 163.698 175.938 162.546 175.938 161.344V79.7812C175.938 78.5795 176.415 77.4269 177.265 76.5772C178.114 75.7274 179.267 75.25 180.469 75.25C181.671 75.25 182.823 75.7274 183.673 76.5772C184.523 77.4269 185 78.5795 185 79.7812V161.344C185 164.949 183.568 168.407 181.019 170.956C178.469 173.505 175.012 174.938 171.406 174.938H53.5666C51.7827 174.938 50.0164 174.586 48.3686 173.902C46.7209 173.219 45.2241 172.217 43.964 170.954C42.7038 169.692 41.7051 168.193 41.0249 166.544C40.3447 164.895 39.9965 163.128 40 161.344V61.6562ZM148.75 165.875C152.103 165.875 154.677 163.963 156.48 161.878C157.314 160.918 157.813 159.35 157.813 157.066V61.6562C157.813 60.4545 157.335 59.3019 156.485 58.4522C155.636 57.6024 154.483 57.125 153.281 57.125H53.5938C52.392 57.125 51.2395 57.6024 50.3897 58.4522C49.5399 59.3019 49.0625 60.4545 49.0625 61.6562V161.344C49.0625 163.863 51.0835 165.875 53.5666 165.875H148.75Z" fill="#284B63"/>
<path d="M58.125 66.1875H148.75V84.3125H58.125V66.1875ZM58.125 93.375H94.375V120.562H58.125V93.375ZM58.125 129.625H94.375V138.688H58.125V129.625ZM58.125 147.75H94.375V156.812H58.125V147.75ZM103.438 93.375H121.562V102.438H103.438V93.375ZM130.625 93.375H148.75V102.438H130.625V93.375ZM103.438 111.5H121.562V120.562H103.438V111.5ZM130.625 111.5H148.75V120.562H130.625V111.5ZM103.438 129.625H121.562V138.688H103.438V129.625ZM130.625 129.625H148.75V138.688H130.625V129.625ZM103.438 147.75H121.562V156.812H103.438V147.75ZM130.625 147.75H148.75V156.812H130.625V147.75Z" fill="#284B63"/>
</g>
<defs>
<clipPath id="clip0_144_8">
<rect width="145" height="145" fill="white" transform="translate(40 39)"/>
</clipPath>
</defs>
</svg>
