<svg width="100" height="40" viewBox="0 0 100 40" fill="none" xmlns="http://www.w3.org/2000/svg">
<path d="M0 20C0 8.95431 8.95431 0 20 0H80C91.0457 0 100 8.95431 100 20C100 31.0457 91.0457 40 80 40H20C8.9543 40 0 31.0457 0 20Z" fill="#B0D7F1"/>
<path d="M27.543 13.7383H29.7598V25.1641C30.0332 25.1641 30.3164 25.1608 30.6094 25.1543C30.9089 25.1478 31.2051 25.1413 31.498 25.1348C31.7975 25.1283 32.0872 25.1217 32.3672 25.1152C32.6536 25.1022 32.9238 25.0892 33.1777 25.0762C33.7767 25.0501 34.3626 25.0241 34.9355 24.998C34.9355 25.1087 34.9193 25.2747 34.8867 25.4961C34.8607 25.7174 34.8281 25.9421 34.7891 26.1699C34.75 26.3913 34.7109 26.5866 34.6719 26.7559C34.6393 26.9186 34.6133 27 34.5938 27H27.543V13.7383Z" fill="#304A61"/>
<path d="M36.4492 22.0098C36.4492 21.1504 36.5632 20.3919 36.791 19.7344C37.0254 19.0768 37.3509 18.5267 37.7676 18.084C38.1908 17.6413 38.6921 17.306 39.2715 17.0781C39.8574 16.8503 40.502 16.7363 41.2051 16.7363C41.9277 16.7363 42.5788 16.8438 43.1582 17.0586C43.7376 17.2669 44.2292 17.5859 44.6328 18.0156C45.0365 18.4453 45.3457 18.9824 45.5605 19.627C45.7754 20.265 45.8828 21.0137 45.8828 21.873C45.8828 22.7324 45.7721 23.4941 45.5508 24.1582C45.3359 24.8223 45.0234 25.3789 44.6133 25.8281C44.2096 26.2773 43.7181 26.6191 43.1387 26.8535C42.5658 27.0814 41.9212 27.1953 41.2051 27.1953C40.4629 27.1953 39.7956 27.0879 39.2031 26.873C38.6172 26.6517 38.1191 26.3262 37.709 25.8965C37.3053 25.4603 36.9928 24.9199 36.7715 24.2754C36.5566 23.6243 36.4492 22.8691 36.4492 22.0098ZM41.2051 25.584C41.6348 25.584 42.0059 25.4928 42.3184 25.3105C42.6374 25.1217 42.8978 24.8646 43.0996 24.5391C43.3014 24.207 43.4512 23.8164 43.5488 23.3672C43.6465 22.9115 43.6953 22.4134 43.6953 21.873C43.6953 20.7077 43.4967 19.819 43.0996 19.207C42.7025 18.5951 42.071 18.2891 41.2051 18.2891C40.7689 18.2891 40.388 18.3835 40.0625 18.5723C39.7435 18.7546 39.4766 19.0117 39.2617 19.3438C39.0534 19.6758 38.8971 20.0697 38.793 20.5254C38.6888 20.9811 38.6367 21.4759 38.6367 22.0098C38.6367 23.1882 38.8451 24.0801 39.2617 24.6855C39.6849 25.2845 40.3327 25.584 41.2051 25.584Z" fill="#304A61"/>
<path d="M48.7051 26.5996C48.5553 26.4173 48.4414 26.2025 48.3633 25.9551C48.2852 25.7012 48.2461 25.4375 48.2461 25.1641C48.2461 24.8646 48.2656 24.6042 48.3047 24.3828C48.3503 24.1549 48.3991 23.9661 48.4512 23.8164C48.5098 23.6406 48.5781 23.4909 48.6562 23.3672V22.918C48.3438 22.6055 48.0931 22.2376 47.9043 21.8145C47.722 21.3913 47.6309 20.877 47.6309 20.2715C47.6309 19.7246 47.7253 19.2363 47.9141 18.8066C48.1029 18.3704 48.3698 18.0026 48.7148 17.7031C49.0664 17.3971 49.4896 17.1628 49.9844 17C50.4792 16.8372 51.0326 16.7559 51.6445 16.7559H51.6543C52.084 16.7559 52.4388 16.7721 52.7188 16.8047C53.0052 16.8372 53.2363 16.873 53.4121 16.9121C53.6204 16.9577 53.7832 17.0098 53.9004 17.0684L56.6543 16.7754V18.3574H55.0625C55.1471 18.4421 55.235 18.5527 55.3262 18.6895C55.4173 18.8262 55.4987 18.9792 55.5703 19.1484C55.6484 19.3177 55.7103 19.5 55.7559 19.6953C55.8079 19.8841 55.834 20.0762 55.834 20.2715C55.834 20.8118 55.7298 21.3034 55.5215 21.7461C55.3132 22.1823 55.0234 22.5599 54.6523 22.8789C54.2812 23.1979 53.8385 23.4453 53.3242 23.6211C52.8164 23.7969 52.2598 23.8848 51.6543 23.8848H51.6445C51.5078 23.8848 51.3613 23.8815 51.2051 23.875C51.0488 23.862 50.8893 23.849 50.7266 23.8359C50.5638 23.8164 50.4076 23.7969 50.2578 23.7773C50.1081 23.7513 49.9714 23.722 49.8477 23.6895V25.0371C49.8477 25.1087 49.8704 25.1706 49.916 25.2227C49.9616 25.2747 50.0169 25.3203 50.082 25.3594C50.1536 25.3919 50.2318 25.418 50.3164 25.4375C50.401 25.457 50.4824 25.4668 50.5605 25.4668H54.418C54.8802 25.4668 55.2676 25.5319 55.5801 25.6621C55.8991 25.7923 56.1562 25.9746 56.3516 26.209C56.5469 26.4368 56.6868 26.7135 56.7715 27.0391C56.8561 27.3646 56.8984 27.7227 56.8984 28.1133C56.8984 28.6081 56.7878 29.0801 56.5664 29.5293C56.3516 29.9785 56.0326 30.3724 55.6094 30.7109C55.1862 31.0495 54.6589 31.3164 54.0273 31.5117C53.4023 31.7135 52.6797 31.8145 51.8594 31.8145H51.8496C51.1725 31.8145 50.5671 31.7396 50.0332 31.5898C49.4993 31.4466 49.0469 31.2448 48.6758 30.9844C48.3112 30.7305 48.0312 30.4277 47.8359 30.0762C47.6406 29.7246 47.543 29.3438 47.543 28.9336C47.543 28.6602 47.6016 28.3965 47.7188 28.1426C47.8359 27.8887 47.9694 27.6641 48.1191 27.4688C48.2884 27.2409 48.4837 27.026 48.7051 26.8242V26.5996ZM51.6543 22.4297C52.0384 22.4297 52.3672 22.3939 52.6406 22.3223C52.9141 22.2441 53.1387 22.1204 53.3145 21.9512C53.4902 21.7819 53.6172 21.5605 53.6953 21.2871C53.7799 21.0137 53.8223 20.6751 53.8223 20.2715C53.8223 19.5358 53.653 19.0085 53.3145 18.6895C52.9759 18.3704 52.4225 18.2109 51.6543 18.2109H51.6445C51.2539 18.2109 50.9284 18.25 50.668 18.3281C50.4076 18.3997 50.2025 18.5202 50.0527 18.6895C49.903 18.8522 49.7956 19.0638 49.7305 19.3242C49.6719 19.5846 49.6426 19.9004 49.6426 20.2715C49.6426 20.6361 49.6719 20.9551 49.7305 21.2285C49.7891 21.4954 49.8932 21.7201 50.043 21.9023C50.1992 22.0781 50.4043 22.2116 50.6582 22.3027C50.9186 22.3874 51.2474 22.4297 51.6445 22.4297H51.6543ZM49.457 28.5723C49.457 28.7415 49.4831 28.9206 49.5352 29.1094C49.5872 29.2982 49.6979 29.4707 49.8672 29.627C50.043 29.7832 50.2904 29.9102 50.6094 30.0078C50.9284 30.112 51.3581 30.1641 51.8984 30.1641H51.9082C52.4225 30.1641 52.8717 30.1022 53.2559 29.9785C53.64 29.8613 53.9557 29.7051 54.2031 29.5098C54.457 29.3145 54.6458 29.0964 54.7695 28.8555C54.8932 28.6146 54.9551 28.3737 54.9551 28.1328C54.9551 27.8268 54.8932 27.5892 54.7695 27.4199C54.6523 27.2572 54.4766 27.1758 54.2422 27.1758H49.877C49.7988 27.2604 49.7077 27.4264 49.6035 27.6738C49.5059 27.9212 49.457 28.2207 49.457 28.5723Z" fill="#304A61"/>
<path d="M59.9453 15.3301C59.763 15.3301 59.5905 15.2975 59.4277 15.2324C59.2715 15.1673 59.1315 15.0794 59.0078 14.9688C58.8906 14.8581 58.7962 14.7311 58.7246 14.5879C58.653 14.4382 58.6172 14.2786 58.6172 14.1094C58.6172 13.9336 58.653 13.7708 58.7246 13.6211C58.7962 13.4714 58.8906 13.3411 59.0078 13.2305C59.1315 13.1198 59.2715 13.0352 59.4277 12.9766C59.5905 12.9115 59.763 12.8789 59.9453 12.8789C60.1276 12.8789 60.3001 12.9115 60.4629 12.9766C60.6257 13.0352 60.7656 13.1198 60.8828 13.2305C61.0065 13.3411 61.1042 13.4714 61.1758 13.6211C61.2474 13.7708 61.2832 13.9336 61.2832 14.1094C61.2832 14.2786 61.2474 14.4382 61.1758 14.5879C61.1042 14.7311 61.0065 14.8581 60.8828 14.9688C60.7656 15.0794 60.6257 15.1673 60.4629 15.2324C60.3001 15.2975 60.1276 15.3301 59.9453 15.3301ZM58.8223 17.0195H60.8535V25.3594L61.4297 25.7695V27H60.873L60.8535 26.9805V27C60.209 27 59.7077 26.8698 59.3496 26.6094C58.998 26.349 58.8223 25.9193 58.8223 25.3203V17.0195Z" fill="#304A61"/>
<path d="M64.0273 18.8066L63.2559 18.0156V16.9121H65.0527L65.8926 17.6738L66.1758 17.6152C66.2214 17.5762 66.3255 17.5078 66.4883 17.4102C66.6576 17.3125 66.8626 17.2148 67.1035 17.1172C67.3509 17.0195 67.6309 16.9349 67.9434 16.8633C68.2559 16.7852 68.5846 16.7461 68.9297 16.7461C69.4766 16.7461 69.9616 16.8275 70.3848 16.9902C70.8145 17.153 71.1758 17.3874 71.4688 17.6934C71.7617 17.9928 71.9831 18.3542 72.1328 18.7773C72.2826 19.2005 72.3574 19.6758 72.3574 20.2031V27H70.2578V20.4082C70.2578 19.6986 70.1081 19.1777 69.8086 18.8457C69.5156 18.5072 69.0469 18.3379 68.4023 18.3379C68.0833 18.3379 67.7871 18.3672 67.5137 18.4258C67.2402 18.4779 66.9993 18.5397 66.791 18.6113C66.5501 18.6895 66.3255 18.7806 66.1172 18.8848V27H64.0273V18.8066Z" fill="#304A61"/>
</svg>
