<svg width="100" height="40" viewBox="0 0 100 40" fill="none" xmlns="http://www.w3.org/2000/svg">
<path d="M0 20C0 8.95431 8.95431 0 20 0H80C91.0457 0 100 8.95431 100 20C100 31.0457 91.0457 40 80 40H20C8.9543 40 0 31.0457 0 20Z" fill="#74B7E6"/>
<path d="M15.543 13.7383H20.1914C20.8424 13.7383 21.4186 13.8294 21.9199 14.0117C22.4212 14.1875 22.8379 14.4414 23.1699 14.7734C23.5085 15.099 23.7624 15.4961 23.9316 15.9648C24.1074 16.4271 24.1953 16.9447 24.1953 17.5176C24.1953 17.9342 24.1432 18.3314 24.0391 18.709C23.9349 19.0801 23.7754 19.4251 23.5605 19.7441C23.3522 20.0566 23.082 20.3366 22.75 20.584C22.4245 20.8314 22.0371 21.0332 21.5879 21.1895C21.8353 21.6647 22.099 22.1465 22.3789 22.6348C22.6589 23.123 22.9388 23.6113 23.2188 24.0996C23.5052 24.5879 23.7884 25.0762 24.0684 25.5645C24.3483 26.0527 24.612 26.5312 24.8594 27H22.4766L19.5762 21.5215H19.4395C19.2507 21.5215 19.0521 21.515 18.8438 21.502C18.6419 21.4824 18.4531 21.4629 18.2773 21.4434C18.069 21.4173 17.8672 21.388 17.6719 21.3555V27H15.543V13.7383ZM17.6719 19.7832C17.7305 19.7897 17.8249 19.7995 17.9551 19.8125C18.0918 19.819 18.2415 19.8255 18.4043 19.832C18.5736 19.8385 18.7526 19.8451 18.9414 19.8516C19.1367 19.8516 19.3223 19.8516 19.498 19.8516C20.3249 19.8516 20.9401 19.666 21.3438 19.2949C21.7539 18.9173 21.959 18.3379 21.959 17.5566C21.959 16.873 21.7734 16.349 21.4023 15.9844C21.0378 15.6198 20.5169 15.4375 19.8398 15.4375H17.6719V19.7832Z" fill="#1B364E"/>
<path d="M25.8848 22.1074C25.8848 21.1699 25.9987 20.3626 26.2266 19.6855C26.4544 19.0085 26.7734 18.4518 27.1836 18.0156C27.5938 17.5794 28.082 17.2604 28.6484 17.0586C29.2214 16.8503 29.8496 16.7461 30.5332 16.7461C31.1647 16.7461 31.7279 16.8535 32.2227 17.0684C32.724 17.2767 33.1471 17.5729 33.4922 17.957C33.8372 18.3411 34.1009 18.8001 34.2832 19.334C34.4655 19.8678 34.5566 20.457 34.5566 21.1016C34.5566 21.3229 34.5469 21.528 34.5273 21.7168C34.5078 21.9056 34.485 22.0684 34.459 22.2051C34.4329 22.3678 34.4036 22.5143 34.3711 22.6445L27.9648 22.6152C27.9714 23.1947 28.0332 23.6764 28.1504 24.0605C28.2676 24.4382 28.4401 24.7376 28.668 24.959C28.9023 25.1803 29.1953 25.3366 29.5469 25.4277C29.8984 25.5124 30.3151 25.5547 30.7969 25.5547C31.207 25.5547 31.5749 25.5286 31.9004 25.4766C32.2259 25.4245 32.5026 25.3626 32.7305 25.291C32.9909 25.2129 33.2253 25.1217 33.4336 25.0176C33.5312 25.2454 33.6061 25.457 33.6582 25.6523C33.7168 25.8477 33.7591 26.0169 33.7852 26.1602C33.8112 26.3294 33.8307 26.4792 33.8438 26.6094C33.6289 26.7201 33.3685 26.8177 33.0625 26.9023C32.8021 26.974 32.4831 27.0391 32.1055 27.0977C31.7279 27.1628 31.2917 27.1953 30.7969 27.1953C30.0156 27.1953 29.319 27.1074 28.707 26.9316C28.1016 26.7559 27.5872 26.4694 27.1641 26.0723C26.7474 25.6686 26.4284 25.1445 26.207 24.5C25.9922 23.849 25.8848 23.0514 25.8848 22.1074ZM32.4668 21.1895V20.8574C32.4668 20.4473 32.4147 20.0859 32.3105 19.7734C32.2129 19.4544 32.0762 19.1875 31.9004 18.9727C31.7246 18.7578 31.5163 18.5951 31.2754 18.4844C31.0345 18.3737 30.7741 18.3184 30.4941 18.3184C30.084 18.3184 29.7227 18.3737 29.4102 18.4844C29.0977 18.5885 28.834 18.7578 28.6191 18.9922C28.4108 19.2201 28.2546 19.5163 28.1504 19.8809C28.0462 20.2454 27.9941 20.6816 27.9941 21.1895H32.4668Z" fill="#1B364E"/>
<path d="M37.4082 26.5996C37.2585 26.4173 37.1445 26.2025 37.0664 25.9551C36.9883 25.7012 36.9492 25.4375 36.9492 25.1641C36.9492 24.8646 36.9688 24.6042 37.0078 24.3828C37.0534 24.1549 37.1022 23.9661 37.1543 23.8164C37.2129 23.6406 37.2812 23.4909 37.3594 23.3672V22.918C37.0469 22.6055 36.7962 22.2376 36.6074 21.8145C36.4251 21.3913 36.334 20.877 36.334 20.2715C36.334 19.7246 36.4284 19.2363 36.6172 18.8066C36.806 18.3704 37.0729 18.0026 37.418 17.7031C37.7695 17.3971 38.1927 17.1628 38.6875 17C39.1823 16.8372 39.7357 16.7559 40.3477 16.7559H40.3574C40.7871 16.7559 41.1419 16.7721 41.4219 16.8047C41.7083 16.8372 41.9395 16.873 42.1152 16.9121C42.3236 16.9577 42.4863 17.0098 42.6035 17.0684L45.3574 16.7754V18.3574H43.7656C43.8503 18.4421 43.9382 18.5527 44.0293 18.6895C44.1204 18.8262 44.2018 18.9792 44.2734 19.1484C44.3516 19.3177 44.4134 19.5 44.459 19.6953C44.5111 19.8841 44.5371 20.0762 44.5371 20.2715C44.5371 20.8118 44.4329 21.3034 44.2246 21.7461C44.0163 22.1823 43.7266 22.5599 43.3555 22.8789C42.9844 23.1979 42.5417 23.4453 42.0273 23.6211C41.5195 23.7969 40.9629 23.8848 40.3574 23.8848H40.3477C40.2109 23.8848 40.0645 23.8815 39.9082 23.875C39.752 23.862 39.5924 23.849 39.4297 23.8359C39.2669 23.8164 39.1107 23.7969 38.9609 23.7773C38.8112 23.7513 38.6745 23.722 38.5508 23.6895V25.0371C38.5508 25.1087 38.5736 25.1706 38.6191 25.2227C38.6647 25.2747 38.7201 25.3203 38.7852 25.3594C38.8568 25.3919 38.9349 25.418 39.0195 25.4375C39.1042 25.457 39.1855 25.4668 39.2637 25.4668H43.1211C43.5833 25.4668 43.9707 25.5319 44.2832 25.6621C44.6022 25.7923 44.8594 25.9746 45.0547 26.209C45.25 26.4368 45.39 26.7135 45.4746 27.0391C45.5592 27.3646 45.6016 27.7227 45.6016 28.1133C45.6016 28.6081 45.4909 29.0801 45.2695 29.5293C45.0547 29.9785 44.7357 30.3724 44.3125 30.7109C43.8893 31.0495 43.362 31.3164 42.7305 31.5117C42.1055 31.7135 41.3828 31.8145 40.5625 31.8145H40.5527C39.8757 31.8145 39.2702 31.7396 38.7363 31.5898C38.2025 31.4466 37.75 31.2448 37.3789 30.9844C37.0143 30.7305 36.7344 30.4277 36.5391 30.0762C36.3438 29.7246 36.2461 29.3438 36.2461 28.9336C36.2461 28.6602 36.3047 28.3965 36.4219 28.1426C36.5391 27.8887 36.6725 27.6641 36.8223 27.4688C36.9915 27.2409 37.1868 27.026 37.4082 26.8242V26.5996ZM40.3574 22.4297C40.7415 22.4297 41.0703 22.3939 41.3438 22.3223C41.6172 22.2441 41.8418 22.1204 42.0176 21.9512C42.1934 21.7819 42.3203 21.5605 42.3984 21.2871C42.4831 21.0137 42.5254 20.6751 42.5254 20.2715C42.5254 19.5358 42.3561 19.0085 42.0176 18.6895C41.679 18.3704 41.1257 18.2109 40.3574 18.2109H40.3477C39.957 18.2109 39.6315 18.25 39.3711 18.3281C39.1107 18.3997 38.9056 18.5202 38.7559 18.6895C38.6061 18.8522 38.4987 19.0638 38.4336 19.3242C38.375 19.5846 38.3457 19.9004 38.3457 20.2715C38.3457 20.6361 38.375 20.9551 38.4336 21.2285C38.4922 21.4954 38.5964 21.7201 38.7461 21.9023C38.9023 22.0781 39.1074 22.2116 39.3613 22.3027C39.6217 22.3874 39.9505 22.4297 40.3477 22.4297H40.3574ZM38.1602 28.5723C38.1602 28.7415 38.1862 28.9206 38.2383 29.1094C38.2904 29.2982 38.401 29.4707 38.5703 29.627C38.7461 29.7832 38.9935 29.9102 39.3125 30.0078C39.6315 30.112 40.0612 30.1641 40.6016 30.1641H40.6113C41.1257 30.1641 41.5749 30.1022 41.959 29.9785C42.3431 29.8613 42.6589 29.7051 42.9062 29.5098C43.1602 29.3145 43.349 29.0964 43.4727 28.8555C43.5964 28.6146 43.6582 28.3737 43.6582 28.1328C43.6582 27.8268 43.5964 27.5892 43.4727 27.4199C43.3555 27.2572 43.1797 27.1758 42.9453 27.1758H38.5801C38.502 27.2604 38.4108 27.4264 38.3066 27.6738C38.209 27.9212 38.1602 28.2207 38.1602 28.5723Z" fill="#1B364E"/>
<path d="M48.6484 15.3301C48.4661 15.3301 48.2936 15.2975 48.1309 15.2324C47.9746 15.1673 47.8346 15.0794 47.7109 14.9688C47.5938 14.8581 47.4993 14.7311 47.4277 14.5879C47.3561 14.4382 47.3203 14.2786 47.3203 14.1094C47.3203 13.9336 47.3561 13.7708 47.4277 13.6211C47.4993 13.4714 47.5938 13.3411 47.7109 13.2305C47.8346 13.1198 47.9746 13.0352 48.1309 12.9766C48.2936 12.9115 48.4661 12.8789 48.6484 12.8789C48.8307 12.8789 49.0033 12.9115 49.166 12.9766C49.3288 13.0352 49.4688 13.1198 49.5859 13.2305C49.7096 13.3411 49.8073 13.4714 49.8789 13.6211C49.9505 13.7708 49.9863 13.9336 49.9863 14.1094C49.9863 14.2786 49.9505 14.4382 49.8789 14.5879C49.8073 14.7311 49.7096 14.8581 49.5859 14.9688C49.4688 15.0794 49.3288 15.1673 49.166 15.2324C49.0033 15.2975 48.8307 15.3301 48.6484 15.3301ZM47.5254 17.0195H49.5566V25.3594L50.1328 25.7695V27H49.5762L49.5566 26.9805V27C48.9121 27 48.4108 26.8698 48.0527 26.6094C47.7012 26.349 47.5254 25.9193 47.5254 25.3203V17.0195Z" fill="#1B364E"/>
<path d="M52.0859 26.5508C52.0859 26.401 52.099 26.2383 52.125 26.0625C52.1445 25.9128 52.1738 25.7435 52.2129 25.5547C52.2585 25.3594 52.3236 25.1576 52.4082 24.9492C52.6947 25.0599 52.9941 25.1576 53.3066 25.2422C53.5736 25.3138 53.8633 25.3822 54.1758 25.4473C54.4883 25.5059 54.7975 25.5352 55.1035 25.5352C55.377 25.5352 55.6309 25.5254 55.8652 25.5059C56.0996 25.4863 56.3014 25.4342 56.4707 25.3496C56.6465 25.2585 56.7832 25.125 56.8809 24.9492C56.9785 24.7669 57.0273 24.5163 57.0273 24.1973C57.0273 23.8132 56.9069 23.5104 56.666 23.2891C56.4316 23.0677 56.0215 22.9017 55.4355 22.791C54.8301 22.6738 54.319 22.5176 53.9023 22.3223C53.4922 22.127 53.1569 21.9023 52.8965 21.6484C52.6426 21.388 52.457 21.0983 52.3398 20.7793C52.2292 20.4603 52.1738 20.1185 52.1738 19.7539C52.1738 19.207 52.2617 18.7415 52.4375 18.3574C52.6133 17.9733 52.8672 17.6641 53.1992 17.4297C53.5378 17.1888 53.9544 17.0163 54.4492 16.9121C54.9505 16.8014 55.5234 16.7461 56.168 16.7461C56.6172 16.7461 57.0143 16.7786 57.3594 16.8438C57.7109 16.9023 58.0039 16.9674 58.2383 17.0391C58.5117 17.1237 58.7493 17.2214 58.9512 17.332C58.9316 17.4753 58.8958 17.6315 58.8438 17.8008C58.7982 17.944 58.7363 18.1068 58.6582 18.2891C58.5866 18.4714 58.4889 18.6569 58.3652 18.8457C58.1895 18.7415 57.9876 18.6504 57.7598 18.5723C57.5645 18.5007 57.3301 18.4388 57.0566 18.3867C56.7832 18.3281 56.4707 18.2988 56.1191 18.2988C55.8457 18.2988 55.5918 18.3118 55.3574 18.3379C55.1296 18.3639 54.931 18.4225 54.7617 18.5137C54.599 18.6048 54.472 18.7448 54.3809 18.9336C54.2897 19.1159 54.2441 19.3665 54.2441 19.6855C54.2441 19.8418 54.2637 19.985 54.3027 20.1152C54.3483 20.2389 54.4329 20.3529 54.5566 20.457C54.6868 20.5612 54.8659 20.6589 55.0938 20.75C55.3281 20.8346 55.6374 20.9193 56.0215 21.0039C56.6204 21.1341 57.1185 21.2839 57.5156 21.4531C57.9193 21.6224 58.2383 21.8275 58.4727 22.0684C58.7135 22.3092 58.8828 22.5924 58.9805 22.918C59.0846 23.237 59.1367 23.6178 59.1367 24.0605C59.1367 24.5358 59.0618 24.9655 58.9121 25.3496C58.7624 25.7337 58.528 26.0625 58.209 26.3359C57.89 26.6094 57.4798 26.821 56.9785 26.9707C56.4772 27.1204 55.8717 27.1953 55.1621 27.1953C54.7064 27.1953 54.2897 27.1628 53.9121 27.0977C53.541 27.0326 53.2188 26.9577 52.9453 26.873C52.6263 26.7819 52.3398 26.6745 52.0859 26.5508Z" fill="#1B364E"/>
<path d="M61.9297 18.5332H60.6504C60.6439 18.4616 60.6374 18.3835 60.6309 18.2988C60.6243 18.2272 60.6178 18.1426 60.6113 18.0449C60.6113 17.9473 60.6113 17.8398 60.6113 17.7227C60.6113 17.6055 60.6146 17.498 60.6211 17.4004C60.6276 17.2962 60.6374 17.1693 60.6504 17.0195H61.9297V15.4668L63.0527 14.1973H63.9219V17.0195H66.6855C66.6986 17.0846 66.7083 17.1628 66.7148 17.2539C66.7279 17.3451 66.7344 17.4329 66.7344 17.5176C66.7344 17.6673 66.7181 17.804 66.6855 17.9277C66.6595 18.0514 66.6302 18.1589 66.5977 18.25C66.5586 18.3542 66.513 18.4486 66.4609 18.5332H63.9219V24.1973C63.9219 24.6725 64 25.0176 64.1562 25.2324C64.319 25.4473 64.5762 25.5547 64.9277 25.5547C65.0775 25.5547 65.2337 25.5384 65.3965 25.5059C65.5658 25.4668 65.7253 25.4212 65.875 25.3691C66.0443 25.3105 66.2168 25.2454 66.3926 25.1738C66.5228 25.3431 66.6237 25.5091 66.6953 25.6719C66.7734 25.8346 66.8288 25.9811 66.8613 26.1113C66.9004 26.2611 66.9232 26.401 66.9297 26.5312C66.7474 26.6549 66.5423 26.7656 66.3145 26.8633C66.1126 26.9479 65.8717 27.0228 65.5918 27.0879C65.3118 27.1595 64.9896 27.1953 64.625 27.1953C64.1172 27.1953 63.6908 27.1302 63.3457 27C63.0072 26.8763 62.7305 26.6908 62.5156 26.4434C62.3073 26.1895 62.1576 25.877 62.0664 25.5059C61.9753 25.1283 61.9297 24.6953 61.9297 24.207V18.5332Z" fill="#1B364E"/>
<path d="M68.1699 22.1074C68.1699 21.1699 68.2839 20.3626 68.5117 19.6855C68.7396 19.0085 69.0586 18.4518 69.4688 18.0156C69.8789 17.5794 70.3672 17.2604 70.9336 17.0586C71.5065 16.8503 72.1348 16.7461 72.8184 16.7461C73.4499 16.7461 74.013 16.8535 74.5078 17.0684C75.0091 17.2767 75.4323 17.5729 75.7773 17.957C76.1224 18.3411 76.3861 18.8001 76.5684 19.334C76.7507 19.8678 76.8418 20.457 76.8418 21.1016C76.8418 21.3229 76.832 21.528 76.8125 21.7168C76.793 21.9056 76.7702 22.0684 76.7441 22.2051C76.7181 22.3678 76.6888 22.5143 76.6562 22.6445L70.25 22.6152C70.2565 23.1947 70.3184 23.6764 70.4355 24.0605C70.5527 24.4382 70.7253 24.7376 70.9531 24.959C71.1875 25.1803 71.4805 25.3366 71.832 25.4277C72.1836 25.5124 72.6003 25.5547 73.082 25.5547C73.4922 25.5547 73.86 25.5286 74.1855 25.4766C74.5111 25.4245 74.7878 25.3626 75.0156 25.291C75.276 25.2129 75.5104 25.1217 75.7188 25.0176C75.8164 25.2454 75.8913 25.457 75.9434 25.6523C76.002 25.8477 76.0443 26.0169 76.0703 26.1602C76.0964 26.3294 76.1159 26.4792 76.1289 26.6094C75.9141 26.7201 75.6536 26.8177 75.3477 26.9023C75.0872 26.974 74.7682 27.0391 74.3906 27.0977C74.013 27.1628 73.5768 27.1953 73.082 27.1953C72.3008 27.1953 71.6042 27.1074 70.9922 26.9316C70.3867 26.7559 69.8724 26.4694 69.4492 26.0723C69.0326 25.6686 68.7135 25.1445 68.4922 24.5C68.2773 23.849 68.1699 23.0514 68.1699 22.1074ZM74.752 21.1895V20.8574C74.752 20.4473 74.6999 20.0859 74.5957 19.7734C74.498 19.4544 74.3613 19.1875 74.1855 18.9727C74.0098 18.7578 73.8014 18.5951 73.5605 18.4844C73.3197 18.3737 73.0592 18.3184 72.7793 18.3184C72.3691 18.3184 72.0078 18.3737 71.6953 18.4844C71.3828 18.5885 71.1191 18.7578 70.9043 18.9922C70.696 19.2201 70.5397 19.5163 70.4355 19.8809C70.3314 20.2454 70.2793 20.6816 70.2793 21.1895H74.752Z" fill="#1B364E"/>
<path d="M80.1914 16.9121L81.1973 17.9668C81.2689 17.804 81.36 17.651 81.4707 17.5078C81.5879 17.3581 81.7214 17.2279 81.8711 17.1172C82.0273 17.0065 82.1999 16.9186 82.3887 16.8535C82.584 16.7884 82.7956 16.7559 83.0234 16.7559C83.2122 16.7559 83.3945 16.7721 83.5703 16.8047C83.7461 16.8307 83.9382 16.8796 84.1465 16.9512C84.153 16.9642 84.1595 17.0163 84.166 17.1074C84.179 17.1986 84.1855 17.3125 84.1855 17.4492C84.1855 17.5534 84.179 17.6771 84.166 17.8203C84.153 17.957 84.1302 18.1003 84.0977 18.25C84.0716 18.3932 84.0293 18.5365 83.9707 18.6797C83.9186 18.8229 83.8503 18.9466 83.7656 19.0508L83.5801 19.0996C83.4499 19.0345 83.3034 18.9792 83.1406 18.9336C82.9844 18.888 82.8216 18.8652 82.6523 18.8652C82.3919 18.8652 82.1738 18.8848 81.998 18.9238C81.8223 18.9564 81.679 18.9922 81.5684 19.0312C81.4382 19.0768 81.334 19.1289 81.2559 19.1875V27H79.166V18.8066L78.3945 18.0156V16.9121H80.1914Z" fill="#1B364E"/>
</svg>
